<svg xmlns="http://www.w3.org/2000/svg" 
    xmlns:xlink="http://www.w3.org/1999/xlink" width="1200" height="1200" viewBox="0 0 1200 1200">
    <g transform="translate(600 600) scale(-0.69 0.69) rotate(30) translate(-600 -600)" style="fill:#000000">
        <svg fill="#000000" 
            xmlns="http://www.w3.org/2000/svg" 
            xmlns:xlink="http://www.w3.org/1999/xlink" version="1.1" x="0px" y="0px" viewBox="0 0 100 100" enable-background="new 0 0 100 100" xml:space="preserve">
            <path d="M50.0002441,5.5007324c-10.4970703,0-19.0366211,8.5395508-19.0366211,19.0366211  c0,7.6464233,4.541687,14.2365112,11.0605469,17.2612915v45.9066772c0,0.5292969,0.2373047,1.0273438,0.6503906,1.3652344  l6.1386719,5.0429688c0.3115234,0.2558594,0.6948242,0.3857422,1.0825195,0.3857422s0.7802734-0.1298828,1.109375-0.3925781  l6.3632813-5.4492188c0.3857422-0.3300781,0.6074219-0.8076172,0.6074219-1.3105469v-4.0732422  c0-0.4433594-0.1992188-0.8583984-0.5478516-1.1396484l-1.8212891-1.4697266l1.8085938-1.4179688  c0.3564453-0.2783203,0.5605469-0.6943359,0.5605469-1.1416016v-3.25c0-0.4375-0.1972656-0.8486328-0.5429688-1.1289063  l-1.8251953-1.4736328l1.8125-1.4199219c0.3525391-0.2792969,0.5556641-0.6953125,0.5556641-1.140625v-3.2431641  c0-0.4433594-0.1992188-0.8583984-0.5478516-1.1396484l-1.8203125-1.4697266l1.8056641-1.4140625  c0.3574219-0.28125,0.5625-0.7011719,0.5625-1.1513672V58.029541c0-0.4384766-0.1972656-0.8486328-0.5419922-1.1279297  l-1.8261719-1.4736328l1.703125-1.3359375c0.4228516-0.3330078,0.6650391-0.828125,0.6650391-1.3583984V41.798645  c6.5186157-3.0247803,11.0605469-9.6148682,11.0605469-17.2612915C69.036377,14.0402832,60.4963379,5.5007324,50.0002441,5.5007324z   M44.0241699,42.5984497c0.7713623,0.2559204,1.5618286,0.4664307,2.3730469,0.6226196v46.319397l-2.3730469-1.9494019V42.5984497z   M55.9758301,52.5969238l-2.0878906,1.6376953c-0.3740234,0.2919922-0.5908203,0.7207031-0.59375,1.1757813  c-0.0039063,0.4550781,0.2060547,0.8867188,0.5742188,1.1835938l2.1074219,1.7011719v2.7148438l-2.0917969,1.6386719  c-0.3720703,0.2919922-0.5878906,0.7197266-0.5908203,1.1748047c-0.0029297,0.4541016,0.2060547,0.8847656,0.5742188,1.1816406  l2.1083984,1.7021484v2.7148438l-2.0898438,1.6386719c-0.3730469,0.2900391-0.5888672,0.7177734-0.5927734,1.171875  c-0.0039063,0.4550781,0.2050781,0.8867188,0.5742188,1.1855469l2.1083984,1.7021484v2.7138672l-2.0898438,1.6376953  c-0.3730469,0.2929688-0.5888672,0.7216797-0.5917969,1.1767578s0.2060547,0.8857422,0.5742188,1.1826172l2.1074219,1.7011719  v3.6855469l-6.0742188,5.2011719l-2.0043945-1.6465454V43.4506226c0.6914063,0.076416,1.3916016,0.1228638,2.1030273,0.1228638  c2.088562,0,4.093811-0.350647,5.9755859-0.9750366V52.5969238z M50.0002441,41.5734863  c-9.394043,0-17.0366211-7.6425781-17.0366211-17.0361328c0-9.394043,7.6425781-17.0366211,17.0366211-17.0366211  c9.3935547,0,17.0361328,7.6425781,17.0361328,17.0366211C67.036377,33.9309082,59.3937988,41.5734863,50.0002441,41.5734863z   M50.0002441,10.8649902c-7.5390625,0-13.6723633,6.1333008-13.6723633,13.6723633s6.1333008,13.6723633,13.6723633,13.6723633  s13.671875-6.1333008,13.671875-13.6723633S57.5393066,10.8649902,50.0002441,10.8649902z M50.0002441,36.7097168  c-6.7119141,0-12.1723633-5.4604492-12.1723633-12.1723633s5.4604492-12.1723633,12.1723633-12.1723633  s12.171875,5.4604492,12.171875,12.1723633S56.7121582,36.7097168,50.0002441,36.7097168z M50.0002441,15.3820801  c-1.9208984,0-3.4833984,1.5625-3.4833984,3.4829102c0,1.9208984,1.5625,3.4833984,3.4833984,3.4833984  s3.4833984-1.5625,3.4833984-3.4833984C53.4836426,16.9445801,51.9211426,15.3820801,50.0002441,15.3820801z M50.0002441,20.8483887  c-1.09375,0-1.9833984-0.8896484-1.9833984-1.9833984c0-1.0932617,0.8896484-1.9829102,1.9833984-1.9829102  s1.9833984,0.8896484,1.9833984,1.9829102C51.9836426,19.9587402,51.0939941,20.8483887,50.0002441,20.8483887z"></path>
        </svg>
    </g>
</svg>